{"title":"Married At First Sight Au - S03E03","uid":15777880,"size":440620435,"categoryP":"video","categoryS":"tv_shows","magnet":"?xt=urn:btih:95521494857bcd3d704a2c534c23fe8e70bafbc4&amp;dn=Married+At+First+Sight+Au+-+S03E03&amp;tr=udp%3A%2F%2Ftracker.leechers-paradise.org%3A6969&amp;tr=udp%3A%2F%2Fzer0day.ch%3A1337&amp;tr=udp%3A%2F%2Fopen.demonii.com%3A1337&amp;tr=udp%3A%2F%2Ftracker.coppersurfer.tk%3A6969&amp;tr=udp%3A%2F%2Fexodus.desync.com%3A6969","seeders":7,"leechers":1,"uploader":"Bullrout","files":1,"time":1473254191,"description":"Married At First Sight Au - S03E03\r\n\r\nFour weddings down, one to go, and it looks like our expert matchmakers are on a roll as couples three and four get hot and heavy at the wedding reception. But is it love or lust at play?\r\n\r\nComplete name                            : G:To ConvertMarried At First Sight Au - S03E03.mp4\r\nFormat                                   : MPEG-4\r\nFormat profile                           : Base Media / Version 2\r\nCodec ID                                 : mp42 (mp42/isom/avc1)\r\nFile size                                : 420 MiB\r\nDuration                                 : 52mn 34s\r\nOverall bit rate mode                    : Variable\r\nOverall bit rate                         : 1 117 Kbps\r\n\r\n\r\nVideo\r\nID                                       : 2\r\nFormat                                   : AVC\r\nFormat/Info                              : Advanced Video Codec\r\nFormat profile                           :   \r\nFormat settings, CABAC                   : Yes\r\nFormat settings, ReFrames                : 3 frames\r\nCodec ID                                 : avc1\r\nCodec ID/Info                            : Advanced Video Coding\r\nDuration                                 : 52mn 34s\r\nBit rate mode                            : Variable\r\nBit rate                                 : 986 Kbps\r\nMaximum bit rate                         : 1 000 Kbps\r\nWidth                                    : 720 pixels\r\nHeight                                   : 404 pixels\r\nDisplay aspect ratio                     : 16:9\r\nOriginal display aspect ratio            : 16:9\r\nFrame rate mode                          : Constant\r\nFrame rate                               : 25.000 fps\r\nStandard                                 : PAL\r\nColor space                              : YUV\r\nChroma subsampling                       : 4:2:0\r\nBit depth                                : 8 bits\r\nScan type                                : Progressive\r\nBits/(Pixel*Frame)                       : 0.136\r\nStream size                              : 371 MiB (88%)\r\nWriting library                          : x264 core 112\r\nColor range                              : Limited\r\nColor primaries                          : BT.601 PAL\r\nTransfer characteristics                 : BT.470 System B, BT.470 System G\r\nMatrix coefficients                      : BT.601\r\n\r\nAudio\r\nID                                       : 1\r\nFormat                                   : AAC\r\nFormat/Info                              : Advanced Audio Codec\r\nFormat profile                           : LC\r\nCodec ID                                 : 40\r\nDuration                                 : 52mn 34s\r\nBit rate mode                            : Variable\r\nBit rate                                 : 128 Kbps\r\nMaximum bit rate                         : 576 Kbps\r\nChannel(s)                               : 2 channels\r\nChannel positions                        : Front: L R\r\nSampling rate                            : 48.0 KHz\r\nFrame rate                               : 46.875 fps (1024 spf)\r\nCompression mode                         : Lossy\r\nStream size                              : 48.1 MiB (11%)","torrent":{"xt":"urn:btih:95521494857bcd3d704a2c534c23fe8e70bafbc4","amp;dn":"Married+At+First+Sight+Au+-+S03E03","amp;tr":["udp%3A%2F%2Ftracker.leechers-paradise.org%3A6969","udp%3A%2F%2Fzer0day.ch%3A1337","udp%3A%2F%2Fopen.demonii.com%3A1337","udp%3A%2F%2Ftracker.coppersurfer.tk%3A6969","udp%3A%2F%2Fexodus.desync.com%3A6969"],"infoHash":"95521494857bcd3d704a2c534c23fe8e70bafbc4","infoHashBuffer":{"type":"Buffer","data":[149,82,20,148,133,123,205,61,112,74,44,83,76,35,254,142,112,186,251,196]},"announce":[],"urlList":[]}}